<svg width="185" height="58" viewBox="0 0 185 58" fill="none" xmlns="http://www.w3.org/2000/svg">
<rect x="0.828369" y="0.530396" width="28.6328" height="28.6328" fill="#FF6201"/>
<rect x="29.1663" y="29.0465" width="28.6328" height="28.6328" fill="#50FFB1"/>
<rect x="0.828369" y="29.0465" width="28.4004" height="28.6328" fill="#4D4D4D"/>
<path d="M1.07568 0.733856L29.0323 28.8293" stroke="white" stroke-width="0.322476" stroke-linecap="round"/>
<path d="M57.8708 29.1242L29.2381 57.757" stroke="#00272B" stroke-width="0.38177" stroke-linecap="round"/>
<rect x="29.238" y="0.491394" width="28.6328" height="28.6328" fill="#00272B"/>
<ellipse cx="43.4826" cy="14.8468" rx="14.3164" ry="14.3164" fill="white"/>
<path d="M29.238 43.4406C29.238 51.3473 22.8283 57.757 14.9216 57.757C7.01489 57.757 0.605225 51.3473 0.605225 43.4406C0.605225 35.5338 7.01489 29.1242 14.9216 29.1242C22.8283 29.1242 29.238 35.5338 29.238 43.4406Z" fill="#F3A712"/>
<path d="M81.0557 35.0895C81.0557 36.4471 80.7164 37.6063 80.0376 38.567C79.3692 39.5173 78.4294 40.2431 77.218 40.7444C76.0066 41.2456 74.5811 41.4962 72.9416 41.4962C72.0748 41.4962 71.2551 41.4545 70.4823 41.3709C69.7095 41.2874 68.9994 41.1673 68.3519 41.0106C67.7045 40.854 67.1353 40.6608 66.6445 40.4311V37.8778C67.4277 38.2015 68.3833 38.5043 69.5111 38.7863C70.6389 39.0578 71.819 39.1936 73.0512 39.1936C74.2 39.1936 75.1712 39.0422 75.9648 38.7393C76.7585 38.426 77.359 37.9822 77.7662 37.4078C78.1839 36.823 78.3928 36.1234 78.3928 35.3088C78.3928 34.5256 78.2205 33.8729 77.8759 33.3508C77.5313 32.8182 76.9569 32.3378 76.1528 31.9096C75.3591 31.471 74.2731 31.0063 72.8946 30.5155C71.9234 30.1709 71.0671 29.7949 70.3256 29.3877C69.5842 28.97 68.9628 28.5 68.4616 27.9779C67.9603 27.4557 67.5792 26.85 67.3181 26.1608C67.0675 25.4716 66.9421 24.6831 66.9421 23.7955C66.9421 22.5737 67.2502 21.5294 67.8663 20.6626C68.4929 19.7854 69.3545 19.1171 70.451 18.6576C71.5579 18.1876 72.8267 17.9527 74.2574 17.9527C75.4792 17.9527 76.6071 18.0675 77.6409 18.2973C78.6852 18.527 79.6407 18.8351 80.5075 19.2215L79.6773 21.5085C78.8523 21.1639 77.9751 20.8767 77.0457 20.6469C76.1267 20.4172 75.1764 20.3023 74.1947 20.3023C73.2131 20.3023 72.3829 20.4485 71.7041 20.7409C71.0358 21.0229 70.5241 21.4249 70.169 21.9471C69.8139 22.4692 69.6364 23.0906 69.6364 23.8112C69.6364 24.6153 69.8035 25.2836 70.1377 25.8162C70.4823 26.3488 71.0253 26.8239 71.7668 27.2417C72.5187 27.6489 73.5107 28.0771 74.743 28.5261C76.0901 29.0169 77.2336 29.5391 78.1735 30.0926C79.1134 30.6356 79.8287 31.3039 80.3195 32.0976C80.8103 32.8808 81.0557 33.8781 81.0557 35.0895ZM92.7727 41.183H90.0941V20.6313H82.8885V18.2816H99.947V20.6313H92.7727V41.183ZM123.271 29.701C123.271 31.4658 123.047 33.074 122.598 34.5256C122.149 35.9667 121.48 37.2094 120.593 38.2537C119.715 39.2876 118.624 40.0864 117.319 40.6504C116.013 41.2143 114.499 41.4962 112.776 41.4962C111.001 41.4962 109.45 41.2143 108.124 40.6504C106.808 40.0864 105.711 39.2823 104.834 38.238C103.968 37.1938 103.315 35.9458 102.876 34.4943C102.448 33.0427 102.234 31.4345 102.234 29.6696C102.234 27.3304 102.62 25.2784 103.393 23.5135C104.166 21.7487 105.336 20.3754 106.902 19.3938C108.479 18.4122 110.453 17.9213 112.823 17.9213C115.089 17.9213 116.995 18.4069 118.541 19.3781C120.097 20.3493 121.271 21.7173 122.065 23.4822C122.869 25.2366 123.271 27.3095 123.271 29.701ZM105.038 29.701C105.038 31.6433 105.315 33.3247 105.868 34.7449C106.422 36.1651 107.267 37.2616 108.406 38.0344C109.554 38.8072 111.011 39.1936 112.776 39.1936C114.551 39.1936 116.003 38.8072 117.131 38.0344C118.269 37.2616 119.11 36.1651 119.653 34.7449C120.196 33.3247 120.467 31.6433 120.467 29.701C120.467 26.7456 119.846 24.4377 118.603 22.7773C117.371 21.1064 115.444 20.271 112.823 20.271C111.048 20.271 109.586 20.6522 108.437 21.4145C107.288 22.1768 106.432 23.2629 105.868 24.6727C105.315 26.072 105.038 27.7481 105.038 29.701ZM144.888 41.183H141.74L133.484 30.0456L131.041 32.2386V41.183H128.378V18.2816H131.041V29.701C131.636 29.0222 132.247 28.3486 132.874 27.6803C133.5 27.0015 134.121 26.3175 134.738 25.6282L141.426 18.2816H144.543L135.427 28.2128L144.888 41.183ZM164.531 41.183H161.383L153.128 30.0456L150.684 32.2386V41.183H148.021V18.2816H150.684V29.701C151.279 29.0222 151.89 28.3486 152.517 27.6803C153.143 27.0015 153.765 26.3175 154.381 25.6282L161.069 18.2816H164.187L155.07 28.2128L164.531 41.183ZM182.028 41.183L179.209 33.9147H170.029L167.226 41.183H164.531L173.491 18.1876H175.888L184.785 41.183H182.028ZM178.41 31.5494L175.731 24.3281C175.669 24.1401 175.564 23.832 175.418 23.4039C175.282 22.9757 175.141 22.5319 174.995 22.0724C174.849 21.6129 174.729 21.2422 174.635 20.9602C174.53 21.3884 174.415 21.8166 174.29 22.2447C174.175 22.6624 174.06 23.054 173.946 23.4195C173.831 23.7746 173.731 24.0774 173.648 24.3281L170.922 31.5494H178.41Z" fill="white"/>
</svg>
