<svg width="98" height="31" viewBox="0 0 98 31" fill="none" xmlns="http://www.w3.org/2000/svg">
<rect x="0.117676" y="0.0205688" width="15.1049" height="15.1049" fill="#FF6201"/>
<rect x="15.0671" y="15.0639" width="15.1049" height="15.1049" fill="#50FFB1"/>
<rect x="0.117676" y="15.0639" width="14.9823" height="15.1049" fill="#4D4D4D"/>
<path d="M0.248291 0.127869L14.9965 14.9493" stroke="white" stroke-width="0.170119" stroke-linecap="round"/>
<path d="M30.21 15.1049L15.1051 30.2098" stroke="#00272B" stroke-width="0.201399" stroke-linecap="round"/>
<rect x="15.105" width="15.1049" height="15.1049" fill="#00272B"/>
<ellipse cx="22.6196" cy="7.57302" rx="7.55245" ry="7.55245" fill="white"/>
<path d="M15.1049 22.6573C15.1049 26.8284 11.7236 30.2098 7.55245 30.2098C3.38135 30.2098 0 26.8284 0 22.6573C0 18.4862 3.38135 15.1049 7.55245 15.1049C11.7236 15.1049 15.1049 18.4862 15.1049 22.6573Z" fill="#F3A712"/>
<path d="M42.4409 18.4214C42.4409 19.1375 42.2618 19.749 41.9037 20.2559C41.5512 20.7572 41.0553 21.1401 40.4163 21.4045C39.7772 21.6689 39.0253 21.8012 38.1603 21.8012C37.7031 21.8012 37.2706 21.7791 36.863 21.7351C36.4553 21.691 36.0807 21.6276 35.7391 21.545C35.3975 21.4624 35.0973 21.3604 34.8384 21.2392V19.8923C35.2516 20.0631 35.7556 20.2228 36.3506 20.3716C36.9456 20.5148 37.5681 20.5864 38.2182 20.5864C38.8242 20.5864 39.3365 20.5065 39.7552 20.3468C40.1739 20.1815 40.4907 19.9474 40.7055 19.6444C40.9259 19.3359 41.0361 18.9668 41.0361 18.5371C41.0361 18.1239 40.9452 17.7796 40.7634 17.5041C40.5816 17.2231 40.2786 16.9697 39.8544 16.7439C39.4357 16.5125 38.8627 16.2673 38.1355 16.0084C37.6232 15.8266 37.1715 15.6283 36.7803 15.4134C36.3892 15.1931 36.0614 14.9452 35.797 14.6697C35.5325 14.3943 35.3314 14.0747 35.1937 13.7111C35.0615 13.3475 34.9954 12.9316 34.9954 12.4633C34.9954 11.8188 35.1579 11.2679 35.4829 10.8106C35.8135 10.3479 36.268 9.99528 36.8464 9.75288C37.4304 9.50498 38.0997 9.38102 38.8545 9.38102C39.499 9.38102 40.094 9.44162 40.6394 9.56282C41.1903 9.68402 41.6944 9.84654 42.1516 10.0504L41.7137 11.2569C41.2785 11.0751 40.8157 10.9236 40.3254 10.8024C39.8406 10.6812 39.3393 10.6206 38.8214 10.6206C38.3036 10.6206 37.8656 10.6977 37.5075 10.8519C37.1549 11.0007 36.885 11.2128 36.6977 11.4882C36.5104 11.7637 36.4167 12.0915 36.4167 12.4716C36.4167 12.8958 36.5049 13.2484 36.6812 13.5293C36.863 13.8103 37.1494 14.061 37.5406 14.2813C37.9372 14.4962 38.4606 14.722 39.1106 14.9589C39.8213 15.2179 40.4246 15.4933 40.9204 15.7853C41.4162 16.0718 41.7935 16.4243 42.0525 16.843C42.3114 17.2562 42.4409 17.7823 42.4409 18.4214ZM48.622 21.6359H47.2089V10.7941H43.4077V9.55456H52.4067V10.7941H48.622V21.6359ZM64.7112 15.5787C64.7112 16.5097 64.5927 17.3581 64.3558 18.1239C64.119 18.8841 63.7664 19.5397 63.2981 20.0906C62.8354 20.636 62.2597 21.0574 61.571 21.3549C60.8824 21.6524 60.0836 21.8012 59.1746 21.8012C58.2381 21.8012 57.42 21.6524 56.7203 21.3549C56.0262 21.0574 55.4477 20.6332 54.985 20.0823C54.5277 19.5314 54.1834 18.8731 53.952 18.1074C53.7261 17.3416 53.6132 16.4932 53.6132 15.5622C53.6132 14.3281 53.817 13.2456 54.2247 12.3146C54.6324 11.3836 55.2494 10.6591 56.0758 10.1413C56.9076 9.62342 57.9488 9.36449 59.1994 9.36449C60.3948 9.36449 61.4002 9.62066 62.2156 10.133C63.0364 10.6453 63.6562 11.367 64.0749 12.2981C64.4991 13.2236 64.7112 14.3171 64.7112 15.5787ZM55.0924 15.5787C55.0924 16.6034 55.2384 17.4903 55.5304 18.2396C55.8223 18.9888 56.2686 19.5672 56.8691 19.9749C57.475 20.3826 58.2436 20.5864 59.1746 20.5864C60.1111 20.5864 60.8769 20.3826 61.4719 19.9749C62.0723 19.5672 62.5158 18.9888 62.8023 18.2396C63.0888 17.4903 63.232 16.6034 63.232 15.5787C63.232 14.0196 62.9042 12.8021 62.2486 11.9262C61.5986 11.0448 60.5822 10.604 59.1994 10.604C58.2628 10.604 57.4916 10.8051 56.8856 11.2073C56.2796 11.6094 55.8278 12.1824 55.5304 12.9261C55.2384 13.6643 55.0924 14.5485 55.0924 15.5787ZM76.1149 21.6359H74.4539L70.099 15.7605L68.8099 16.9174V21.6359H67.4051V9.55456H68.8099V15.5787C69.1239 15.2206 69.4462 14.8653 69.7768 14.5127C70.1073 14.1546 70.4351 13.7938 70.7601 13.4302L74.2887 9.55456H75.9331L71.1237 14.7937L76.1149 21.6359ZM86.4774 21.6359H84.8164L80.4615 15.7605L79.1724 16.9174V21.6359H77.7676V9.55456H79.1724V15.5787C79.4864 15.2206 79.8087 14.8653 80.1393 14.5127C80.4698 14.1546 80.7976 13.7938 81.1226 13.4302L84.6512 9.55456H86.2956L81.4862 14.7937L86.4774 21.6359ZM95.7078 21.6359L94.2204 17.8016H89.3779L87.8988 21.6359H86.4774L91.2042 9.50498H92.4685L97.1622 21.6359H95.7078ZM93.7989 16.5538L92.3859 12.7443C92.3528 12.6451 92.2977 12.4826 92.2206 12.2567C92.149 12.0309 92.0746 11.7967 91.9975 11.5543C91.9204 11.3119 91.857 11.1164 91.8074 10.9676C91.7523 11.1935 91.6917 11.4194 91.6256 11.6452C91.565 11.8656 91.5044 12.0722 91.4438 12.265C91.3832 12.4523 91.3309 12.6121 91.2868 12.7443L89.849 16.5538H93.7989Z" fill="white"/>
</svg>
