<svg width="186" height="58" viewBox="0 0 186 58" fill="none" xmlns="http://www.w3.org/2000/svg">
<rect x="0.223877" width="28.7352" height="28.7352" fill="#FF6201"/>
<rect x="28.6633" y="28.6182" width="28.7352" height="28.7352" fill="#50FFB1"/>
<rect x="0.223877" y="28.6182" width="28.502" height="28.7352" fill="#4D4D4D"/>
<path d="M0.472168 0.204163L28.5287 28.4001" stroke="white" stroke-width="0.32363" stroke-linecap="round"/>
<path d="M57.4705 28.6961L28.7353 57.4313" stroke="#00272B" stroke-width="0.383136" stroke-linecap="round"/>
<ellipse cx="43.0307" cy="14.3676" rx="14.3676" ry="14.3676" fill="#00272B"/>
<path d="M28.7352 43.0637C28.7352 50.9987 22.3026 57.4313 14.3676 57.4313C6.43259 57.4313 0 50.9987 0 43.0637C0 35.1287 6.43259 28.6961 14.3676 28.6961C22.3026 28.6961 28.7352 35.1287 28.7352 43.0637Z" fill="#F3A712"/>
<path d="M80.7384 34.6594C80.7384 36.0218 80.3978 37.1851 79.7166 38.1493C79.0459 39.103 78.1026 39.8314 76.8869 40.3344C75.6712 40.8375 74.2407 41.089 72.5953 41.089C71.7254 41.089 70.9027 41.0471 70.1271 40.9632C69.3516 40.8794 68.6389 40.7589 67.9892 40.6017C67.3394 40.4445 66.7682 40.2506 66.2756 40.02V37.4576C67.0617 37.7825 68.0206 38.0864 69.1525 38.3694C70.2844 38.6419 71.4686 38.7781 72.7053 38.7781C73.8581 38.7781 74.8328 38.6261 75.6293 38.3222C76.4258 38.0078 77.0284 37.5624 77.4371 36.986C77.8564 36.3991 78.066 35.6969 78.066 34.8794C78.066 34.0934 77.893 33.4384 77.5472 32.9144C77.2013 32.3799 76.6249 31.8978 75.8179 31.4681C75.0214 31.0279 73.9315 30.5616 72.5481 30.069C71.5734 29.7231 70.714 29.3459 69.9699 28.9371C69.2258 28.5179 68.6023 28.0463 68.0992 27.5223C67.5962 26.9983 67.2136 26.3904 66.9516 25.6987C66.7001 25.007 66.5743 24.2158 66.5743 23.3249C66.5743 22.0987 66.8835 21.0507 67.5018 20.1808C68.1307 19.3005 68.9953 18.6298 70.0957 18.1686C71.2066 17.697 72.48 17.4612 73.9158 17.4612C75.142 17.4612 76.2738 17.5765 77.3114 17.8071C78.3594 18.0376 79.3184 18.3468 80.1882 18.7346L79.355 21.0298C78.5271 20.6839 77.6467 20.3957 76.714 20.1651C75.7917 19.9346 74.838 19.8193 73.8529 19.8193C72.8677 19.8193 72.0346 19.966 71.3533 20.2594C70.6826 20.5424 70.1691 20.9459 69.8127 21.4699C69.4564 21.9939 69.2782 22.6175 69.2782 23.3407C69.2782 24.1476 69.4459 24.8184 69.7813 25.3529C70.1271 25.8874 70.6721 26.3642 71.4162 26.7834C72.1708 27.1922 73.1664 27.6218 74.4031 28.0725C75.7551 28.5651 76.9026 29.0891 77.8459 29.6445C78.7891 30.1895 79.507 30.8603 79.9996 31.6568C80.4921 32.4428 80.7384 33.4436 80.7384 34.6594ZM92.4973 40.7746H89.8091V20.1494H82.5777V17.7913H99.6973V20.1494H92.4973V40.7746ZM123.105 29.2515C123.105 31.0227 122.88 32.6367 122.429 34.0934C121.978 35.5397 121.308 36.7869 120.417 37.8349C119.536 38.8724 118.441 39.6742 117.131 40.2401C115.821 40.806 114.302 41.089 112.572 41.089C110.791 41.089 109.234 40.806 107.903 40.2401C106.583 39.6742 105.482 38.8672 104.602 37.8192C103.732 36.7711 103.077 35.5187 102.637 34.062C102.207 32.6052 101.992 30.9913 101.992 29.2201C101.992 26.8725 102.38 24.8131 103.156 23.042C103.931 21.2708 105.105 19.8926 106.677 18.9075C108.26 17.9223 110.24 17.4298 112.619 17.4298C114.894 17.4298 116.806 17.9171 118.357 18.8918C119.919 19.8664 121.098 21.2394 121.894 23.0105C122.701 24.7712 123.105 26.8515 123.105 29.2515ZM104.806 29.2515C104.806 31.2009 105.084 32.8882 105.64 34.3135C106.195 35.7388 107.044 36.8393 108.186 37.6148C109.339 38.3903 110.801 38.7781 112.572 38.7781C114.354 38.7781 115.811 38.3903 116.943 37.6148C118.085 36.8393 118.929 35.7388 119.474 34.3135C120.019 32.8882 120.291 31.2009 120.291 29.2515C120.291 26.2856 119.667 23.9695 118.42 22.3031C117.184 20.6263 115.25 19.7878 112.619 19.7878C110.838 19.7878 109.371 20.1704 108.218 20.9354C107.065 21.7005 106.206 22.7904 105.64 24.2053C105.084 25.6096 104.806 27.2917 104.806 29.2515ZM144.799 40.7746H141.639L133.355 29.5974L130.902 31.7982V40.7746H128.23V17.7913H130.902V29.2515C131.5 28.5703 132.113 27.8943 132.742 27.2236C133.37 26.5424 133.994 25.8559 134.612 25.1642L141.325 17.7913H144.453L135.304 27.7581L144.799 40.7746ZM164.513 40.7746H161.353L153.068 29.5974L150.616 31.7982V40.7746H147.943V17.7913H150.616V29.2515C151.213 28.5703 151.826 27.8943 152.455 27.2236C153.084 26.5424 153.707 25.8559 154.326 25.1642L161.038 17.7913H164.167L155.017 27.7581L164.513 40.7746ZM182.072 40.7746L179.243 33.4803H170.03L167.216 40.7746H164.513L173.505 17.697H175.91L184.839 40.7746H182.072ZM178.441 31.1065L175.753 23.8594C175.69 23.6708 175.585 23.3616 175.438 22.9319C175.302 22.5022 175.161 22.0568 175.014 21.5957C174.867 21.1346 174.747 20.7625 174.652 20.4795C174.547 20.9092 174.432 21.3389 174.306 21.7686C174.191 22.1878 174.076 22.5808 173.961 22.9476C173.845 23.304 173.746 23.6079 173.662 23.8594L170.926 31.1065H178.441Z" fill="#00272B"/>
</svg>
