<svg width="88" height="28" viewBox="0 0 88 28" fill="none" xmlns="http://www.w3.org/2000/svg">
<path d="M38.2823 15.6347C38.2823 16.2803 38.1209 16.8316 37.7981 17.2885C37.4802 17.7405 37.0332 18.0856 36.4571 18.324C35.881 18.5624 35.2031 18.6816 34.4234 18.6816C34.0112 18.6816 33.6213 18.6617 33.2538 18.622C32.8863 18.5823 32.5486 18.5251 32.2407 18.4506C31.9328 18.3762 31.6621 18.2843 31.4287 18.175V16.9607C31.8012 17.1147 32.2556 17.2587 32.792 17.3928C33.3283 17.5219 33.8895 17.5865 34.4756 17.5865C35.0219 17.5865 35.4837 17.5145 35.8612 17.3705C36.2386 17.2215 36.5242 17.0104 36.7179 16.7372C36.9165 16.4591 37.0159 16.1264 37.0159 15.739C37.0159 15.3665 36.9339 15.0561 36.77 14.8078C36.6061 14.5545 36.333 14.3261 35.9506 14.1225C35.5731 13.9139 35.0566 13.6929 34.4011 13.4594C33.9392 13.2956 33.5319 13.1168 33.1793 12.9231C32.8267 12.7244 32.5312 12.5009 32.2928 12.2526C32.0545 12.0043 31.8732 11.7162 31.749 11.3885C31.6298 11.0607 31.5702 10.6857 31.5702 10.2636C31.5702 9.68251 31.7167 9.18588 32.0098 8.77367C32.3077 8.35649 32.7175 8.03864 33.2389 7.82012C33.7654 7.59664 34.3688 7.48489 35.0492 7.48489C35.6302 7.48489 36.1666 7.53952 36.6583 7.64878C37.1549 7.75804 37.6093 7.90455 38.0216 8.08831L37.6267 9.17594C37.2344 9.01205 36.8172 8.87548 36.3752 8.76622C35.9382 8.65696 35.4862 8.60233 35.0194 8.60233C34.5525 8.60233 34.1577 8.67186 33.8349 8.81091C33.517 8.94501 33.2737 9.13621 33.1048 9.38453C32.936 9.63285 32.8516 9.92835 32.8516 10.271C32.8516 10.6534 32.931 10.9713 33.0899 11.2246C33.2538 11.4779 33.5121 11.7038 33.8647 11.9025C34.2223 12.0962 34.6941 12.2998 35.2801 12.5133C35.9208 12.7468 36.4646 12.9951 36.9116 13.2583C37.3585 13.5166 37.6987 13.8344 37.9322 14.2118C38.1656 14.5843 38.2823 15.0586 38.2823 15.6347ZM43.8546 18.5326H42.5807V8.75877H39.1539V7.64133H47.2665V8.75877H43.8546V18.5326ZM58.3589 13.0721C58.3589 13.9114 58.2521 14.6762 58.0385 15.3665C57.825 16.0519 57.5071 16.6429 57.085 17.1395C56.6678 17.6312 56.1488 18.0111 55.528 18.2793C54.9072 18.5475 54.1871 18.6816 53.3676 18.6816C52.5234 18.6816 51.7859 18.5475 51.1551 18.2793C50.5294 18.0111 50.0079 17.6287 49.5907 17.1321C49.1785 16.6354 48.8681 16.042 48.6595 15.3516C48.4559 14.6613 48.3541 13.8965 48.3541 13.0572C48.3541 11.9447 48.5378 10.9688 48.9054 10.1295C49.2729 9.29017 49.8291 8.63709 50.5741 8.17025C51.324 7.70341 52.2626 7.46999 53.39 7.46999C54.4677 7.46999 55.3741 7.70093 56.1091 8.1628C56.8491 8.62468 57.4078 9.27527 57.7852 10.1146C58.1676 10.9489 58.3589 11.9348 58.3589 13.0721ZM49.6876 13.0721C49.6876 13.9958 49.8192 14.7954 50.0824 15.4708C50.3456 16.1462 50.7479 16.6677 51.2892 17.0352C51.8355 17.4027 52.5283 17.5865 53.3676 17.5865C54.2119 17.5865 54.9023 17.4027 55.4386 17.0352C55.98 16.6677 56.3798 16.1462 56.638 15.4708C56.8963 14.7954 57.0254 13.9958 57.0254 13.0721C57.0254 11.6666 56.7299 10.569 56.1389 9.77936C55.5529 8.98474 54.6366 8.58743 53.39 8.58743C52.5457 8.58743 51.8504 8.7687 51.3041 9.13125C50.7578 9.49379 50.3506 10.0103 50.0824 10.6808C49.8192 11.3462 49.6876 12.1434 49.6876 13.0721ZM68.6393 18.5326H67.1419L63.216 13.236L62.0538 14.2789V18.5326H60.7874V7.64133H62.0538V13.0721C62.3369 12.7492 62.6275 12.4289 62.9254 12.1111C63.2234 11.7883 63.5189 11.463 63.8119 11.1352L66.9929 7.64133H68.4754L64.1397 12.3644L68.6393 18.5326ZM77.981 18.5326H76.4836L72.5577 13.236L71.3956 14.2789V18.5326H70.1292V7.64133H71.3956V13.0721C71.6787 12.7492 71.9692 12.4289 72.2672 12.1111C72.5652 11.7883 72.8607 11.463 73.1537 11.1352L76.3346 7.64133H77.8171L73.4815 12.3644L77.981 18.5326ZM86.3022 18.5326L84.9612 15.076H80.5958L79.2623 18.5326H77.981L82.2422 7.59664H83.3819L87.6133 18.5326H86.3022ZM84.5813 13.9511L83.3074 10.5169C83.2776 10.4275 83.228 10.281 83.1584 10.0773C83.0939 9.87372 83.0268 9.66265 82.9573 9.44413C82.8878 9.22561 82.8307 9.0493 82.786 8.91521C82.7363 9.11883 82.6817 9.32245 82.6221 9.52607C82.5674 9.72473 82.5128 9.91097 82.4582 10.0848C82.4036 10.2536 82.3564 10.3977 82.3166 10.5169L81.0204 13.9511H84.5813Z" fill="#00272B"/>
<rect y="0.23584" width="27.234" height="27.234" fill="white"/>
<rect y="0.23584" width="13.617" height="13.617" fill="#FF6201"/>
<rect y="13.8528" width="13.5065" height="13.617" fill="#50FFB1"/>
<line x1="0.108443" y1="0.23584" x2="13.617" y2="13.7444" stroke="white" stroke-width="0.153361" stroke-linecap="round"/>
<path d="M27.2339 13.8528L13.6169 27.4698" stroke="#00272B" stroke-width="0.18156" stroke-linecap="round"/>
<rect x="13.6169" y="0.23584" width="13.617" height="13.617" fill="#00272B"/>
<circle cx="20.4254" cy="7.04433" r="6.80849" fill="white"/>
<path d="M13.617 20.6613C13.617 24.4215 10.5687 27.4698 6.80849 27.4698C3.04827 27.4698 0 24.4215 0 20.6613C0 16.901 3.04827 13.8528 6.80849 13.8528C10.5687 13.8528 13.617 16.901 13.617 20.6613Z" fill="#4C4C4C"/>
</svg>
