<svg width="28" height="31" viewBox="0 0 28 31" fill="none" xmlns="http://www.w3.org/2000/svg">
<circle cx="14.3375" cy="7.3625" r="7.3625" fill="white"/>
<path fill-rule="evenodd" clip-rule="evenodd" d="M27.9 24.8C27.9 24.8 27.9 24.8 27.9 24.8V29.45C27.9 30.306 27.206 31 26.35 31H1.55C0.693956 31 0 30.306 0 29.45V24.8C0 24.8 0 24.8 0 24.8C1.14956e-05 23.7823 0.360838 22.7745 1.06188 21.8343C1.76293 20.894 2.79048 20.0396 4.08586 19.32C5.38124 18.6003 6.91907 18.0295 8.61156 17.64C10.3041 17.2505 12.1181 17.05 13.95 17.05C15.7819 17.05 17.5959 17.2505 19.2884 17.64C20.9809 18.0295 22.5188 18.6003 23.8141 19.32C25.1095 20.0396 26.1371 20.894 26.8381 21.8343C27.5392 22.7745 27.9 23.7823 27.9 24.8Z" fill="white"/>
</svg>
